<?xml version="1.0" encoding="utf-8"?>
<!-- Generator: Adobe Illustrator 17.1.0, SVG Export Plug-In . SVG Version: 6.00 Build 0)  -->
<!DOCTYPE svg PUBLIC "-//W3C//DTD SVG 1.1//EN" "http://www.w3.org/Graphics/SVG/1.1/DTD/svg11.dtd">
<svg version="1.1" id="Layer_1" xmlns="http://www.w3.org/2000/svg" xmlns:xlink="http://www.w3.org/1999/xlink" x="0px" y="0px"
	 viewBox="3.3 376.8 793.4 423.2" enable-background="new 3.3 376.8 793.4 423.2" xml:space="preserve">
<g>
	<path d="M308,609.1c15.1,9.9,28.3,19.1,42.1,27.2c9.1,5.6,10.2,13.6,8.6,22.5c-4.7,27.4-9.9,54.7-15,82c-0.5,2.6-1.8,5.1-3.2,7.5
		c-3.9,6.9-10.9,10-18.3,7.7c-6.6-2.1-9.4-8-9.7-14.4c-0.3-7.7,0.8-15.3,1.5-23c1.4-14.2,1.7-28.8,4.7-42.7
		c2.4-11.1-3.5-14.7-10.9-19.1c-15-8.5-29.8-17.4-44.5-26.3c-8.9-5.6-16.9-11.8-18.6-23.6c-2.3-15.4,2.1-27.8,14.2-37.3
		c18.4-14.4,36.7-28.8,55.8-42.4c9.1-6.6,19.2-12.7,29.7-17.1c11.4-4.7,24.7,0.2,31.3,10.5c11.8,18.4,23.3,37.2,34.5,56
		c2.7,4.4,5.7,5.9,10.6,5.7c18.3-0.3,36.4-0.3,54.7,0c7.7,0,14.1,5.9,15.1,12.7c0.9,6-3,12.6-9.1,14.7c-2.3,0.8-4.8,0.9-7.4,0.9
		c-19.1,0-38.1-1.2-56.9,0.5c-15.7,1.4-22.8-7.7-30-18.6c-5.3-8-11.2-15.7-16.8-23.6c-2.4-3.5-5.4-3.2-8.3-0.9
		C344.5,581.5,326.6,595,308,609.1z"/>
	<path d="M460.8,501.3c0,19.4-16.6,36-36,36s-36.1-16.6-36-36c0-19.4,17.2-36.3,36.3-35.7C444.7,466.3,460.8,482.5,460.8,501.3z"/>
	<g>
		<path d="M209.8,655.6c3.2,0,6.4,0,9.6,0c1.3,0.2,2.6,0.4,3.9,0.6c10,1.2,19.4,4.4,28.1,9.6c11,6.6,19.7,15.6,26.2,26.7
			c4.4,7.5,7.1,15.7,8.4,24.3c0.3,2.1,0.6,4.2,0.9,6.2c0,3.2,0,6.4,0,9.6c-0.1,0.4-0.2,0.8-0.3,1.2c-0.6,3.8-1,7.7-1.9,11.5
			c-3.8,15.3-11.9,27.9-23.9,38c-10.3,8.6-22,13.9-35.3,15.9c-2,0.3-4,0.6-5.9,0.8c-3.2,0-6.4,0-9.6,0c-1.3-0.2-2.6-0.4-3.9-0.6
			c-10-1.2-19.4-4.4-28.1-9.6c-11-6.6-19.7-15.6-26.2-26.7c-4.4-7.5-7.1-15.7-8.4-24.3c-0.3-2.1-0.6-4.2-0.9-6.2c0-3.2,0-6.4,0-9.6
			c0.1-0.4,0.2-0.8,0.3-1.2c0.6-3.8,1-7.7,1.9-11.5c3.8-15.3,11.9-27.9,23.9-38c10.3-8.6,22-13.9,35.3-15.9
			C205.9,656.2,207.8,655.9,209.8,655.6z M214.7,703.7c-13.2-0.1-24.1,10.8-24.1,24.1c0,13.2,10.6,23.9,24,24.1
			c13.2,0.2,24.1-10.6,24.2-24C238.8,714.7,228,703.8,214.7,703.7z M269.4,696.2c-5.8-9.8-13.4-17.5-23.2-23.2
			c-5.1,8.8-10,17.5-15.1,26.3c5.1,3,9,7,12,12C251.9,706.3,260.6,701.3,269.4,696.2z M186.1,744.3c-8.8,5.1-17.5,10-26.3,15.1
			c5.8,9.8,13.4,17.5,23.2,23.2c5-8.8,10-17.5,15.1-26.3C193.1,753.3,189.1,749.3,186.1,744.3z"/>
		<path d="M214.6,734.3c-3.7,0-6.5-2.8-6.5-6.5s2.9-6.6,6.6-6.6c3.6,0,6.5,2.9,6.5,6.5C221.1,731.5,218.3,734.3,214.6,734.3z"/>
	</g>
	<g>
		<path d="M441.6,655.6c3.2,0,6.4,0,9.6,0c1.3,0.2,2.6,0.4,3.9,0.6c10,1.2,19.4,4.4,28.1,9.6c11,6.6,19.7,15.6,26.2,26.7
			c4.4,7.5,7.1,15.7,8.4,24.3c0.3,2.1,0.6,4.2,0.9,6.2c0,3.2,0,6.4,0,9.6c-0.1,0.4-0.2,0.8-0.3,1.2c-0.6,3.8-1,7.7-1.9,11.5
			c-3.8,15.3-11.9,27.9-24,38c-10.3,8.6-22,13.9-35.3,15.9c-2,0.3-4,0.6-5.9,0.8c-3.2,0-6.4,0-9.6,0c-1.3-0.2-2.6-0.4-3.9-0.6
			c-10-1.2-19.4-4.4-28.1-9.6c-11-6.6-19.7-15.6-26.2-26.7c-4.4-7.5-7.1-15.7-8.4-24.3c-0.3-2.1-0.6-4.2-0.9-6.2c0-3.2,0-6.4,0-9.6
			c0.1-0.4,0.2-0.8,0.3-1.2c0.6-3.8,1-7.7,1.9-11.5c3.8-15.3,11.9-27.9,23.9-38c10.3-8.6,22-13.9,35.3-15.9
			C437.6,656.2,439.6,655.9,441.6,655.6z M446.5,703.7c-13.2-0.1-24.1,10.8-24.1,24.1c0,13.2,10.6,23.9,24,24.1
			c13.2,0.2,24.1-10.6,24.2-24C470.6,714.7,459.8,703.8,446.5,703.7z M501.2,696.2c-5.8-9.8-13.4-17.5-23.2-23.2
			c-5.1,8.8-10,17.5-15.1,26.3c5.1,3,9,7,12,12C483.7,706.3,492.3,701.3,501.2,696.2z M417.9,744.3c-8.8,5.1-17.5,10-26.3,15.1
			c5.8,9.8,13.4,17.5,23.2,23.2c5-8.8,10-17.5,15.1-26.3C424.9,753.3,420.9,749.3,417.9,744.3z"/>
		<path d="M446.4,734.3c-3.7,0-6.5-2.8-6.5-6.5s2.9-6.6,6.6-6.6c3.6,0,6.5,2.9,6.5,6.5C452.9,731.5,450.1,734.3,446.4,734.3z"/>
	</g>
	<path d="M766.5,535.3c4.5-17.2,9-34.3,13.6-51.6c-1.1-0.3-2.1-0.6-3.1-0.8c-17.7-4.1-35.5-7.5-53.7-7.9c-2.6-0.1-5.3,0.1-7.9,0.1
		c-1.7-0.1-2.4,0.6-2.8,2.2c-5.5,21.2-11.1,42.3-16.7,63.5c-0.4,1.6-1,3.3-1.7,4.8c-3.9,8.2-13.5,12.1-22.5,9.2
		c-8.8-2.9-14.2-12-12.4-21.1c1.8-9.2,9.9-15.7,19-15.1c1.9,0.1,3.9,0.5,5.7,1.1c1.7,0.6,3.3,1.6,5.3,2.6c0.2-0.9,0.5-1.8,0.7-2.6
		c5.4-20.3,10.8-40.6,16-61c0.6-2.1,1.6-3.1,3.6-3.6c7.2-1.8,14.6-2.1,21.9-1.8c22.1,0.9,43.5,5.5,64.7,11.1c0.1,0,0.2,0.2,0.5,0.3
		c-0.1,0.4-0.1,0.8-0.2,1.2c-7.8,29.7-15.7,59.4-23.5,89.1c-2,7.4-8.1,12.7-15.5,13.6c-7.6,0.9-15-2.7-18.7-9.2
		c-4.2-7.3-2.8-16.7,3.3-22.7c6-5.9,15.4-6.9,22.8-2.5C765.4,534.6,765.9,534.9,766.5,535.3z"/>
	<path d="M97,507.6c-5.9-16.8-11.7-33.5-17.6-50.4c-1.1,0.4-2.1,0.7-3.1,1.1c-17,6.5-33.7,13.7-49.1,23.6c-2.2,1.4-4.3,3.1-6.5,4.5
		c-1.4,0.9-1.6,1.8-1.1,3.4c7.3,20.7,14.5,41.4,21.7,62.1c0.6,1.6,1,3.3,1.3,5c1.3,9-4.5,17.6-13.5,20.2c-8.9,2.6-18.5-2-22.1-10.6
		c-3.7-8.6-0.6-18.6,7.3-23.2c1.7-1,3.5-1.7,5.3-2.2s3.7-0.5,5.8-0.8c-0.3-0.9-0.6-1.7-0.9-2.6c-6.9-20.1-13.8-40-20.8-59.8
		c-0.7-2.1-0.4-3.5,1-5c5-5.6,10.9-9.9,17.2-13.8c18.8-11.6,39.2-19.8,60-27.1c0.1,0,0.3,0,0.6,0c0.2,0.3,0.4,0.7,0.5,1.2
		c10.1,29.1,20.3,58.1,30.4,87.2c2.5,7.2,0.4,15.1-5.2,20c-5.8,5-14,6.1-20.7,2.8c-7.6-3.7-11.7-12.3-10-20.7
		c1.7-8.2,8.9-14.4,17.5-14.9C95.7,507.6,96.3,507.6,97,507.6z"/>
	<path d="M615.5,437.1c0-14.1,0-28.1,0-42.2c-0.9,0-1.7,0-2.6,0c-14.4,0.4-28.7,1.5-42.7,4.8c-2,0.5-4,1.2-6,1.6
		c-1.3,0.3-1.7,0.9-1.7,2.3c0,17.3,0,34.6,0,52c0,1.3-0.1,2.7-0.4,4c-1.4,7.1-7.9,12-15.3,11.6c-7.3-0.4-13.3-6.3-13.7-13.7
		c-0.5-7.4,4.4-14,11.5-15.4c1.5-0.3,3.1-0.4,4.6-0.3c1.4,0.1,2.9,0.6,4.6,0.9c0-0.7,0-1.4,0-2.1c0-16.6,0-33.3,0-49.9
		c0-1.7,0.6-2.7,2-3.5c5.2-2.9,10.7-4.5,16.4-5.8c17.1-3.8,34.4-4.5,51.8-4.6c0.1,0,0.2,0.1,0.5,0.2c0,0.3,0.1,0.6,0.1,1
		c0,24.3,0,48.6,0,73c0,6-3.7,11.4-9.1,13.5c-5.6,2.2-12,0.9-16.2-3.3c-4.7-4.8-5.5-12.2-2.1-18c3.4-5.7,10.4-8.4,17-6.5
		C614.5,436.8,614.9,437,615.5,437.1z"/>
</g>
</svg>
