<?xml version="1.0" encoding="utf-8"?>
<!-- Generator: Adobe Illustrator 17.1.0, SVG Export Plug-In . SVG Version: 6.00 Build 0)  -->
<!DOCTYPE svg PUBLIC "-//W3C//DTD SVG 1.1//EN" "http://www.w3.org/Graphics/SVG/1.1/DTD/svg11.dtd">
<svg version="1.1" id="Layer_1" xmlns="http://www.w3.org/2000/svg" xmlns:xlink="http://www.w3.org/1999/xlink" x="0px" y="0px"
	 viewBox="0 373.3 800 426.7" enable-background="new 0 373.3 800 426.7" xml:space="preserve">
<g>
	<path fill="#FFFFFF" d="M307.2,607.5c15.2,10,28.5,19.3,42.5,27.4c9.2,5.6,10.3,13.7,8.7,22.7c-4.7,27.6-10,55.2-15.1,82.7
		c-0.5,2.6-1.8,5.1-3.2,7.6c-3.9,7-11,10.1-18.5,7.8c-6.7-2.1-9.5-8.1-9.8-14.5c-0.3-7.8,0.8-15.4,1.5-23.2
		c1.4-14.3,1.7-29,4.7-43.1c2.4-11.2-3.5-14.8-11-19.3c-15.1-8.6-30-17.5-44.9-26.5c-9-5.6-17-11.9-18.8-23.8
		c-2.3-15.5,2.1-28,14.3-37.6c18.6-14.5,37-29,56.3-42.8c9.2-6.7,19.4-12.8,29.9-17.2c11.5-4.7,24.9,0.2,31.6,10.6
		c11.9,18.6,23.5,37.5,34.8,56.5c2.7,4.4,5.7,5.9,10.7,5.7c18.5-0.3,36.7-0.3,55.2,0c7.8,0,14.2,5.9,15.2,12.8
		c0.9,6-3,12.7-9.2,14.8c-2.3,0.8-4.8,0.9-7.5,0.9c-19.3,0-38.4-1.2-57.4,0.5c-15.8,1.4-23-7.8-30.2-18.8
		c-5.3-8.1-11.3-15.8-16.9-23.8c-2.4-3.5-5.4-3.2-8.4-0.9C344,579.7,326,593.3,307.2,607.5z"/>
	<path fill="#FFFFFF" d="M461.3,498.8c0,19.6-16.7,36.3-36.3,36.3s-36.4-16.7-36.3-36.3c0-19.6,17.3-36.6,36.6-36
		C445.1,463.5,461.3,479.9,461.3,498.8z"/>
	<g>
		<path fill="#FFFFFF" d="M208.2,654.4c3.2,0,6.5,0,9.7,0c1.3,0.2,2.6,0.4,3.9,0.6c10.1,1.2,19.6,4.4,28.3,9.7
			c11.1,6.7,19.9,15.7,26.4,26.9c4.4,7.6,7.2,15.8,8.5,24.5c0.3,2.1,0.6,4.2,0.9,6.3c0,3.2,0,6.5,0,9.7c-0.1,0.4-0.2,0.8-0.3,1.2
			c-0.6,3.8-1,7.8-1.9,11.6c-3.8,15.4-12,28.1-24.1,38.3c-10.4,8.7-22.2,14-35.6,16c-2,0.3-4,0.6-5.9,0.8c-3.2,0-6.5,0-9.7,0
			c-1.3-0.2-2.6-0.4-3.9-0.6c-10.1-1.2-19.6-4.4-28.3-9.7c-11.1-6.7-19.9-15.7-26.4-26.9c-4.4-7.6-7.2-15.8-8.5-24.5
			c-0.3-2.1-0.6-4.2-0.9-6.3c0-3.2,0-6.5,0-9.7c0.1-0.4,0.2-0.8,0.3-1.2c0.6-3.8,1-7.8,1.9-11.6c3.8-15.4,12-28.1,24.1-38.3
			c10.4-8.7,22.2-14,35.6-16C204.3,655,206.2,654.7,208.2,654.4z M213.1,702.9c-13.3-0.1-24.3,10.9-24.3,24.3
			c0,13.3,10.7,24.1,24.2,24.3c13.3,0.2,24.3-10.7,24.4-24.2C237.4,714,226.6,703,213.1,702.9z M268.3,695.3
			c-5.8-9.9-13.5-17.6-23.4-23.4c-5.1,8.9-10.1,17.6-15.2,26.5c5.1,3,9.1,7.1,12.1,12.1C250.6,705.5,259.4,700.5,268.3,695.3z
			 M184.3,743.8c-8.9,5.1-17.6,10.1-26.5,15.2c5.8,9.9,13.5,17.6,23.4,23.4c5-8.9,10.1-17.6,15.2-26.5
			C191.4,752.9,187.3,748.9,184.3,743.8z"/>
		<path fill="#FFFFFF" d="M213,733.8c-3.7,0-6.6-2.8-6.6-6.6c0-3.7,2.9-6.7,6.7-6.7c3.6,0,6.6,2.9,6.6,6.6
			C219.6,730.9,216.8,733.8,213,733.8z"/>
	</g>
	<g>
		<path fill="#FFFFFF" d="M441.9,654.4c3.2,0,6.5,0,9.7,0c1.3,0.2,2.6,0.4,3.9,0.6c10.1,1.2,19.6,4.4,28.3,9.7
			c11.1,6.7,19.9,15.7,26.4,26.9c4.4,7.6,7.2,15.8,8.5,24.5c0.3,2.1,0.6,4.2,0.9,6.3c0,3.2,0,6.5,0,9.7c-0.1,0.4-0.2,0.8-0.3,1.2
			c-0.6,3.8-1,7.8-1.9,11.6c-3.8,15.4-12,28.1-24.2,38.3c-10.4,8.7-22.2,14-35.6,16c-2,0.3-4,0.6-5.9,0.8c-3.2,0-6.5,0-9.7,0
			c-1.3-0.2-2.6-0.4-3.9-0.6c-10.1-1.2-19.6-4.4-28.3-9.7c-11.1-6.7-19.9-15.7-26.4-26.9c-4.4-7.6-7.2-15.8-8.5-24.5
			c-0.3-2.1-0.6-4.2-0.9-6.3c0-3.2,0-6.5,0-9.7c0.1-0.4,0.2-0.8,0.3-1.2c0.6-3.8,1-7.8,1.9-11.6c3.8-15.4,12-28.1,24.1-38.3
			c10.4-8.7,22.2-14,35.6-16C437.9,655,439.9,654.7,441.9,654.4z M446.9,702.9c-13.3-0.1-24.3,10.9-24.3,24.3
			c0,13.3,10.7,24.1,24.2,24.3c13.3,0.2,24.3-10.7,24.4-24.2C471.2,714,460.3,703,446.9,702.9z M502,695.3
			c-5.8-9.9-13.5-17.6-23.4-23.4c-5.1,8.9-10.1,17.6-15.2,26.5c5.1,3,9.1,7.1,12.1,12.1C484.4,705.5,493,700.5,502,695.3z
			 M418,743.8c-8.9,5.1-17.6,10.1-26.5,15.2c5.8,9.9,13.5,17.6,23.4,23.4c5-8.9,10.1-17.6,15.2-26.5
			C425.1,752.9,421.1,748.9,418,743.8z"/>
		<path fill="#FFFFFF" d="M446.8,733.8c-3.7,0-6.6-2.8-6.6-6.6c0-3.7,2.9-6.7,6.7-6.7c3.6,0,6.6,2.9,6.6,6.6
			C453.3,730.9,450.5,733.8,446.8,733.8z"/>
	</g>
	<path fill="#FFFFFF" d="M769.5,533.1c4.5-17.3,9.1-34.6,13.7-52c-1.1-0.3-2.1-0.6-3.1-0.8c-17.8-4.1-35.8-7.6-54.1-8
		c-2.6-0.1-5.3,0.1-8,0.1c-1.7-0.1-2.4,0.6-2.8,2.2c-5.5,21.4-11.2,42.7-16.8,64c-0.4,1.6-1,3.3-1.7,4.8
		c-3.9,8.3-13.6,12.2-22.7,9.3c-8.9-2.9-14.3-12.1-12.5-21.3c1.8-9.3,10-15.8,19.2-15.2c1.9,0.1,3.9,0.5,5.7,1.1
		c1.7,0.6,3.3,1.6,5.3,2.6c0.2-0.9,0.5-1.8,0.7-2.6c5.4-20.5,10.9-40.9,16.1-61.5c0.6-2.1,1.6-3.1,3.6-3.6
		c7.3-1.8,14.7-2.1,22.1-1.8c22.3,0.9,43.9,5.5,65.2,11.2c0.1,0,0.2,0.2,0.5,0.3c-0.1,0.4-0.1,0.8-0.2,1.2
		c-7.9,29.9-15.8,59.9-23.7,89.8c-2,7.5-8.2,12.8-15.6,13.7c-7.7,0.9-15.1-2.7-18.9-9.3c-4.2-7.4-2.8-16.8,3.3-22.9
		c6-5.9,15.5-7,23-2.5C768.4,532.4,768.9,532.7,769.5,533.1z"/>
	<path fill="#FFFFFF" d="M94.5,505.2c-5.9-16.9-11.8-33.8-17.7-50.8c-1.1,0.4-2.1,0.7-3.1,1.1c-17.1,6.6-34,13.8-49.5,23.8
		c-2.2,1.4-4.3,3.1-6.6,4.5c-1.4,0.9-1.6,1.8-1.1,3.4c7.4,20.9,14.6,41.7,21.9,62.6c0.6,1.6,1,3.3,1.3,5c1.3,9.1-4.5,17.7-13.6,20.4
		c-9,2.6-18.7-2-22.3-10.7c-3.7-8.7-0.6-18.8,7.4-23.4c1.7-1,3.5-1.7,5.3-2.2s3.7-0.5,5.8-0.8c-0.3-0.9-0.6-1.7-0.9-2.6
		c-7-20.3-13.9-40.3-21-60.3c-0.7-2.1-0.4-3.5,1-5c5-5.6,11-10,17.3-13.9c19-11.7,39.5-20,60.5-27.3c0.1,0,0.3,0,0.6,0
		c0.2,0.3,0.4,0.7,0.5,1.2c10.2,29.3,20.5,58.6,30.7,87.9c2.5,7.3,0.4,15.2-5.2,20.2c-5.8,5-14.1,6.2-20.9,2.8
		c-7.7-3.7-11.8-12.4-10.1-20.9c1.7-8.3,9-14.5,17.6-15C93.2,505.2,93.8,505.2,94.5,505.2z"/>
	<path fill="#FFFFFF" d="M617.3,434.1c0-14.2,0-28.3,0-42.6c-0.9,0-1.7,0-2.6,0c-14.5,0.4-28.9,1.5-43.1,4.8c-2,0.5-4,1.2-6,1.6
		c-1.3,0.3-1.7,0.9-1.7,2.3c0,17.4,0,34.9,0,52.4c0,1.3-0.1,2.7-0.4,4c-1.4,7.2-8,12.1-15.4,11.7c-7.4-0.4-13.4-6.4-13.8-13.8
		c-0.5-7.5,4.4-14.1,11.6-15.5c1.5-0.3,3.1-0.4,4.6-0.3c1.4,0.1,2.9,0.6,4.6,0.9c0-0.7,0-1.4,0-2.1c0-16.7,0-33.6,0-50.3
		c0-1.7,0.6-2.7,2-3.5c5.2-2.9,10.8-4.5,16.5-5.8c17.2-3.8,34.7-4.5,52.2-4.6c0.1,0,0.2,0.1,0.5,0.2c0,0.3,0.1,0.6,0.1,1
		c0,24.5,0,49,0,73.6c0,6-3.7,11.5-9.2,13.6c-5.6,2.2-12.1,0.9-16.3-3.3c-4.7-4.8-5.5-12.3-2.1-18.1c3.4-5.7,10.5-8.5,17.1-6.6
		C616.3,433.8,616.7,434,617.3,434.1z"/>
</g>
</svg>
